<mxfile host="Electron" modified="2023-11-05T16:42:34.851Z" agent="Mozilla/5.0 (X11; Linux x86_64) AppleWebKit/537.36 (KHTML, like Gecko) draw.io/22.0.3 Chrome/114.0.5735.289 Electron/25.8.4 Safari/537.36" etag="qcGobYV2xSCAtgBS4_4J" version="22.0.3" type="device">
  <diagram id="HlE96H9JewH-4wE8NtzM" name="Page-1">
    <mxGraphModel dx="2954" dy="1153" grid="1" gridSize="10" guides="1" tooltips="1" connect="1" arrows="1" fold="1" page="1" pageScale="1" pageWidth="1654" pageHeight="1169" math="0" shadow="0">
      <root>
        <mxCell id="0" />
        <mxCell id="1" parent="0" />
      </root>
    </mxGraphModel>
  </diagram>
</mxfile>
